<?xml version="1.0" encoding="UTF-8"?>
<svg id="Layer_1" data-name="Layer 1" xmlns="http://www.w3.org/2000/svg" xmlns:xlink="http://www.w3.org/1999/xlink" viewBox="0 0 659.71 316.45">
  <defs>
    <style>
      .cls-1 {
        fill: none;
      }

      .cls-2 {
        fill: #a3489b;
      }

      .cls-3 {
        fill: #231f20;
      }

      .cls-4 {
        fill: #f2ed61;
      }

      .cls-5 {
        fill: #4a8ac9;
      }

      .cls-6 {
        fill: #fff;
      }

      .cls-7 {
        fill: #241f21;
      }

      .cls-8 {
        clip-path: url(#clippath);
      }
    </style>
    <clipPath id="clippath">
      <rect class="cls-1" x="-508.03" y="-609.16" width="1166.08" height="1218.32"/>
    </clipPath>
  </defs>
  <g class="cls-8">
    <path class="cls-6" d="M546.78,312.95H112.9c-60.52,0-109.58-48.73-109.58-108.85v-92.92C3.32,51.06,52.38,2.33,112.9,2.33h433.87c60.52,0,109.58,48.73,109.58,108.85v92.92c0,60.12-49.06,108.85-109.58,108.85"/>
    <path class="cls-7" d="M546.78,314.64H112.9c-61.36,0-111.27-49.59-111.27-110.54v-92.92C1.63,50.23,51.55.64,112.9.64h433.87c61.36,0,111.27,49.59,111.27,110.54v92.92c0,60.95-49.92,110.54-111.27,110.54ZM112.9,4.02C53.41,4.02,5.01,52.09,5.01,111.18v92.92c0,59.09,48.4,107.16,107.9,107.16h433.87c59.49,0,107.89-48.07,107.89-107.16v-92.92c0-59.09-48.4-107.16-107.89-107.16H112.9Z"/>
    <path class="cls-4" d="M527.85,293.18H133.46c-60.51,0-109.57-48.72-109.57-108.83v-54.56c0-60.1,49.05-108.83,109.57-108.83h394.39c60.51,0,109.57,48.72,109.57,108.83v54.56c0,60.1-49.06,108.83-109.57,108.83"/>
    <path class="cls-7" d="M527.85,294.45H133.46c-61.11,0-110.83-49.39-110.83-110.09v-54.56c0-60.71,49.72-110.09,110.83-110.09h394.39c61.11,0,110.83,49.39,110.83,110.09v54.56c0,60.71-49.72,110.09-110.83,110.09ZM133.46,22.24c-59.72,0-108.3,48.25-108.3,107.56v54.56c0,59.31,48.58,107.56,108.3,107.56h394.39c59.72,0,108.3-48.25,108.3-107.56v-54.56c0-59.31-48.58-107.56-108.3-107.56H133.46Z"/>
    <path class="cls-5" d="M205.33,194.1c2.17,9.33,5.29,13.65,9.34,12.95,3.21-.57,5.85-3.94,7.9-10.09,2.69-7.7,2.53-13.96-.46-18.78-1.43-2.41-3.53-4-6.28-4.77-.66-.18-1.38-.21-2.05-.1-2.75.42-4.92,1.31-6.53,2.68-1.79,1.54-2.79,3.32-2.99,5.37-.2,2.04-.23,4.21-.09,6.51.14,2.3.53,4.38,1.16,6.24M254.14,174.38c6.99,33.05-.06,52.59-21.16,58.63-5.99,1.39-11.2,1.18-15.61-.64-1.95-.81-4.07.04-5.45,1.64-.58.67-1.36,1.26-2.34,1.76-1.47.82-3.83,1.4-7.07,1.74-1.21.05-3.42.21-6.61.48-3.2.27-5.15.45-5.87.55-2.53.24-4.76-.42-6.68-1.98-2.63-2.19-4.36-5.57-5.19-10.15-.83-4.58-1.39-10.88-1.67-18.89-.28-8.01-.78-14.53-1.49-19.55-.61-6.01-1.4-11.82-2.37-17.41-.97-5.6-1.91-10.92-2.81-15.98-.9-5.06-1.74-9.73-2.53-14.01-.79-4.28-1.31-8.17-1.56-11.67-.25-3.5-.22-6.52.09-9.07.31-2.54,1.1-4.55,2.35-6.01,1.26-1.46,3.08-2.36,5.47-2.7.61.04,1.97-.09,4.06-.39,2.09-.3,3.63-.45,4.6-.47.97-.01,2.28-.05,3.92-.1,1.64-.05,3.12.08,4.45.38,1.32.3,2.58.8,3.78,1.48,1.43.65,2.45,1.36,3.04,2.13.77,1.11.98,3.03.64,5.76-1.01,8.25-1.11,17.23-.29,26.95.35,4.22,5.3,6.2,8.58,3.52,2.94-2.4,6.3-4.16,10.1-5.26,4.32-1.34,8.65-1.38,12.98-.1,4.33,1.28,8.11,3.46,11.36,6.54,3.24,3.08,6.03,6.62,8.37,10.62,2.33,4,3.98,8.07,4.93,12.2"/>
    <path class="cls-3" d="M189.05,239.24c-2.29,0-4.33-.73-6.11-2.17-2.74-2.29-4.56-5.83-5.42-10.54-.83-4.58-1.4-10.97-1.68-18.98-.28-7.96-.78-14.52-1.48-19.48-.61-6.03-1.41-11.87-2.37-17.39-.97-5.6-1.91-10.92-2.81-15.98-.9-5.06-1.74-9.73-2.53-14.01-.79-4.28-1.32-8.23-1.57-11.74-.25-3.52-.22-6.62.09-9.2.32-2.66,1.17-4.8,2.51-6.35,1.36-1.58,3.34-2.56,5.88-2.92h.07s.07,0,.07,0c.39.03,1.38-.02,3.93-.39,2.09-.3,3.67-.46,4.68-.48.97-.01,2.28-.05,3.91-.1,1.68-.05,3.23.08,4.61.39,1.38.32,2.71.84,3.96,1.55,1.49.68,2.57,1.44,3.24,2.3.89,1.29,1.14,3.32.77,6.24-1,8.17-1.1,17.19-.29,26.82.14,1.7,1.16,3.11,2.73,3.77,1.62.69,3.41.42,4.79-.71,2.99-2.45,6.47-4.26,10.33-5.38,4.42-1.37,8.91-1.41,13.34-.1,4.41,1.3,8.32,3.55,11.62,6.69,3.27,3.11,6.13,6.73,8.48,10.76,2.36,4.05,4.04,8.21,5,12.39h0c7.05,33.3-.23,53.28-21.62,59.4-6.14,1.43-11.52,1.2-16.04-.66-1.54-.63-3.39-.06-4.71,1.46-.63.73-1.48,1.37-2.53,1.92-1.54.86-3.94,1.45-7.3,1.8-1.27.05-3.48.21-6.62.48-3.15.27-5.12.45-5.84.55-.36.03-.72.05-1.07.05ZM173.66,111.77c-2.19.32-3.88,1.15-5.01,2.47-1.17,1.35-1.91,3.26-2.2,5.66-.3,2.5-.33,5.5-.08,8.94.25,3.46.77,7.37,1.55,11.6.79,4.28,1.63,8.95,2.53,14.01.9,5.06,1.84,10.38,2.81,15.98.97,5.55,1.77,11.43,2.38,17.46.71,4.99,1.21,11.59,1.49,19.6.28,7.95.84,14.27,1.66,18.79.8,4.4,2.47,7.69,4.96,9.77,1.8,1.46,3.83,2.06,6.21,1.83.71-.1,2.7-.29,5.88-.55,3.16-.27,5.4-.43,6.64-.48,3.1-.33,5.4-.88,6.78-1.65.92-.48,1.64-1.02,2.16-1.62,1.69-1.96,4.12-2.67,6.19-1.81,4.26,1.76,9.38,1.96,15.21.6,20.58-5.89,27.55-25.36,20.67-57.85-.93-4.04-2.56-8.09-4.86-12.02-2.29-3.92-5.07-7.45-8.25-10.47-3.15-2.99-6.88-5.14-11.09-6.38-4.18-1.23-8.43-1.2-12.6.1-3.71,1.08-7.03,2.81-9.88,5.14-1.73,1.42-4.08,1.76-6.12.9-2.02-.85-3.33-2.67-3.52-4.86-.82-9.72-.72-18.83.29-27.09.32-2.55.15-4.34-.52-5.32-.51-.65-1.45-1.3-2.78-1.91-1.19-.68-2.4-1.15-3.65-1.44-1.27-.29-2.71-.41-4.28-.36-1.64.05-2.95.08-3.93.1-.96.02-2.48.17-4.52.46-2.12.3-3.44.43-4.12.4ZM213.8,207.78c-3.99,0-6.97-4.43-9.09-13.5-.64-1.9-1.04-4.05-1.18-6.38-.14-2.34-.11-4.56.09-6.61.21-2.2,1.29-4.15,3.21-5.8,1.68-1.44,3.99-2.39,6.85-2.83.79-.12,1.6-.08,2.32.12,2.91.81,5.15,2.51,6.67,5.06,3.09,4.96,3.26,11.47.52,19.33-2.16,6.45-4.91,9.89-8.4,10.51-.34.06-.66.09-.99.09ZM214.57,173.9c-.23,0-.46.02-.69.05-2.62.4-4.71,1.25-6.2,2.53-1.68,1.44-2.59,3.05-2.77,4.93-.2,1.98-.22,4.14-.08,6.41.14,2.23.52,4.27,1.12,6.07l.02.06c2.07,8.89,4.96,13.08,8.59,12.46,2.94-.53,5.43-3.77,7.4-9.65,2.61-7.48,2.48-13.61-.4-18.23-1.35-2.26-3.33-3.77-5.91-4.48-.34-.09-.71-.14-1.08-.14Z"/>
    <path class="cls-5" d="M299.53,158.78c.89,1.05,1.35,2.91,1.37,5.58.38,13.47,1.84,26.33,4.4,38.6.65,2.42,1.02,4.73,1.11,6.92.09,2.2-.08,4.08-.5,5.64-.42,1.56-1.4,2.8-2.95,3.71-1.55.91-3.7,1.35-6.46,1.3-.42-.03-1.01-.05-1.76-.08-.76-.02-1.26-.04-1.51-.05-.25,0-.63,0-1.12.03-.5.02-.87.03-1.12.02-.25,0-.54-.01-.88,0-.34,0-.71.03-1.11.09-1,.05-1.83-.21-2.48-.8-.66-.58-.98-1.37-.94-2.38l-.06-1.37c-1.18,1.75-3.85,3.48-8.01,5.2-4.15,1.72-7.52,2.63-10.09,2.72-1.41.1-2.8,0-4.17-.32-4.48-1.07-7.86-3.83-10.12-8.29-1.6-3.21-2.72-6.31-3.37-9.32-.65-3-1.01-5.81-1.06-8.43-.06-2.62-.32-5.99-.78-10.1-.47-4.11-1.27-8.89-2.41-14.32-.32-1.13-.34-2.12-.09-2.99.26-.87.57-1.47.95-1.82.37-.34.91-.73,1.6-1.15.07-.09.15-.14.23-.15,1.45-1.03,3.99-1.7,7.62-2.02,3.63-.32,6.9-.17,9.82.44,2.57.49,4.36,2.38,5.39,5.67.6,2.01.86,4.27.78,6.78-.01,1.17-.14,2.59-.37,4.24-.24,1.66-.48,3.15-.72,4.48-.24,1.33-.42,2.77-.55,4.33-.12,1.56-.1,3,.07,4.31-.03,2.93.67,5.34,2.09,7.23,1.42,1.9,3.25,2.45,5.48,1.65,2.08-.69,3.47-2.13,4.18-4.31.58-1.91.61-4.5.09-7.77-1.01-6.96-2.34-12.87-3.99-17.74-.67-1.91-1.16-3.39-1.47-4.43-.31-1.04-.47-2.4-.48-4.07-.02-1.67.32-3.05,1.01-4.14,1.15-1.99,3.1-3.33,5.85-4.04,2.42-.65,5.59-.95,9.52-.89,3.51.03,5.85.72,7.03,2.07"/>
    <path class="cls-3" d="M266.37,224.6c-1.09,0-2.2-.12-3.28-.37-4.66-1.11-8.21-4.02-10.55-8.63-1.61-3.24-2.77-6.43-3.43-9.47-.66-3.04-1.02-5.92-1.08-8.56-.06-2.58-.32-5.96-.78-10.04-.46-4.08-1.27-8.88-2.4-14.26-.34-1.2-.37-2.33-.07-3.31.3-.99.67-1.68,1.13-2.11.39-.36.92-.74,1.62-1.18.12-.13.25-.2.37-.25,1.57-1.07,4.14-1.75,7.84-2.07,3.68-.32,7.05-.17,10.01.45,2.8.54,4.78,2.59,5.88,6.11.62,2.08.89,4.43.81,6.99-.01,1.17-.14,2.63-.38,4.32-.23,1.64-.48,3.15-.72,4.5-.24,1.31-.42,2.74-.54,4.26-.12,1.51-.1,2.91.07,4.17-.02,2.86.64,5.16,1.97,6.93,1.26,1.68,2.76,2.14,4.74,1.42,1.9-.63,3.13-1.91,3.78-3.9.54-1.8.57-4.32.06-7.47-1-6.89-2.34-12.82-3.97-17.64-.69-1.95-1.17-3.41-1.48-4.46-.32-1.1-.49-2.53-.51-4.25-.02-1.79.36-3.3,1.11-4.49,1.23-2.12,3.33-3.58,6.23-4.32,2.45-.66,5.73-.97,9.69-.91,3.74.04,6.19.78,7.51,2.29h0c1,1.19,1.5,3.15,1.52,6,.38,13.36,1.85,26.31,4.39,38.47.66,2.42,1.04,4.79,1.12,7.03.09,2.25-.09,4.22-.52,5.83-.46,1.72-1.55,3.1-3.24,4.1-1.65.97-3.93,1.45-6.8,1.39-.45-.03-1.03-.05-1.77-.08l-1.51-.05c-.25,0-.6,0-1.07.03-.52.02-.91.04-1.17.02-.25,0-.53-.01-.85,0-.3,0-.63.03-1.03.08-1.23.05-2.22-.26-3-.96-.74-.64-1.13-1.51-1.16-2.57-1.5,1.4-3.86,2.77-7.17,4.14-4.2,1.74-7.67,2.68-10.31,2.77-.35.03-.7.04-1.06.04ZM248.4,167.64l-.11.08c-.66.41-1.16.77-1.5,1.08-.19.18-.48.59-.76,1.52-.22.75-.19,1.63.09,2.63,1.15,5.47,1.97,10.31,2.43,14.43.46,4.12.73,7.54.79,10.16.05,2.55.41,5.35,1.05,8.31.64,2.94,1.75,6.02,3.32,9.16,2.16,4.25,5.42,6.93,9.69,7.95,1.3.3,2.64.4,3.97.3,2.51-.09,5.83-.99,9.89-2.67,4.01-1.67,6.61-3.34,7.72-4.97l1.1-1.62.14,3.33c-.03.86.21,1.47.72,1.92.53.47,1.19.68,2.03.64.52-.07,1.02-.09,1.45-.09.22,0,.42,0,.6.01.23,0,.59,0,1.07-.02.52-.03.91-.04,1.18-.03l1.51.05c.76.02,1.36.05,1.78.08,2.59.04,4.65-.36,6.09-1.21,1.41-.83,2.27-1.92,2.65-3.32.4-1.49.56-3.32.48-5.44-.08-2.14-.45-4.42-1.09-6.78-2.56-12.27-4.04-25.3-4.42-38.75-.02-2.51-.43-4.24-1.21-5.17-1.05-1.19-3.25-1.81-6.55-1.84-3.86-.06-7,.24-9.34.87-2.57.66-4.4,1.91-5.45,3.74-.63,1-.94,2.28-.93,3.81.01,1.6.17,2.91.45,3.89.3,1.03.78,2.47,1.46,4.4,1.66,4.9,3.01,10.91,4.02,17.87.53,3.34.5,6.05-.11,8.05-.78,2.39-2.33,3.98-4.6,4.74-2.47.89-4.62.24-6.21-1.87-1.5-2-2.25-4.57-2.22-7.63-.17-1.26-.2-2.76-.07-4.36.13-1.56.31-3.04.56-4.39.24-1.33.48-2.83.71-4.45.23-1.63.35-3.03.37-4.16.08-2.44-.17-4.65-.75-6.59-.95-3.06-2.55-4.77-4.89-5.21-2.85-.6-6.09-.74-9.65-.43-3.49.31-5.95.95-7.3,1.9l-.15.1Z"/>
    <path class="cls-5" d="M352.65,165.27c2.22,2.55,2.21,6.94-.05,13.2-2.01,5.53-4.56,9.1-7.66,10.71-1.86.95-3.53.73-5-.67-.55-.43-1.22-1.02-2-1.77-.78-.74-1.34-1.26-1.66-1.57-.32-.3-.81-.74-1.45-1.31-.64-.57-1.1-.92-1.37-1.04-.27-.13-.71-.36-1.3-.71-.59-.34-1.02-.44-1.29-.3-.27.14-.71.18-1.34.1-1.7.32-2.95,1.52-3.74,3.6-.8,2.09-.97,5.06-.5,8.9.51,5.73,1.52,11.36,3.01,16.89.6,2.14,1,3.79,1.21,4.95.21,1.16.27,2.62.18,4.37-.09,1.75-.57,3.23-1.43,4.42-1.38,2.1-3.59,3.42-6.63,3.95-2.59.52-6.05.61-10.36.28-3.78-.26-6.23-1.18-7.35-2.77-.93-1.23-1.3-3.29-1.11-6.16.06-1.17.17-3.73.33-7.69.16-3.96.27-6.81.31-8.56.04-1.75.09-4.2.14-7.35.05-3.14,0-6.01-.16-8.61-.16-2.6-.46-5.15-.88-7.65-.46-3.67-.79-6.8-.99-9.4-.2-2.6.48-4.57,2.06-5.91,1.58-1.34,4.34-2.02,8.3-2.04.81.07,2.18.05,4.11-.04,1.93-.1,3.21-.11,3.84-.04,1.17.06,2.08.42,2.72,1.07.64.65.93,1.48.87,2.47l-.09,1.62c1.74-2.2,3.95-4.1,6.65-5.7,2.69-1.6,5.53-2.35,8.49-2.25,6.65.09,11.36,1.76,14.14,5.01"/>
    <path class="cls-3" d="M315.92,230.13c-1.44,0-3.01-.07-4.71-.2-4.02-.27-6.58-1.27-7.83-3.04-1.02-1.36-1.43-3.51-1.23-6.58.06-1.16.17-3.72.33-7.67.16-3.93.27-6.81.31-8.55.04-1.75.09-4.2.14-7.34.05-3.08,0-5.96-.16-8.56-.16-2.55-.45-5.11-.87-7.58-.46-3.65-.79-6.82-1-9.46-.22-2.81.55-4.98,2.29-6.46,1.72-1.46,4.57-2.18,8.72-2.19.84.07,2.2.05,4.08-.04,1.94-.1,3.27-.11,3.94-.03,1.29.07,2.35.49,3.11,1.26.71.73,1.07,1.63,1.07,2.68,1.56-1.65,3.42-3.13,5.57-4.4,2.79-1.66,5.77-2.44,8.85-2.34,6.8.09,11.72,1.85,14.61,5.23,2.41,2.76,2.43,7.29.07,13.85-2.05,5.67-4.74,9.39-7.97,11.07-2.1,1.07-4.09.8-5.75-.78-.55-.43-1.23-1.04-2-1.77l-.34-.33c-.6-.57-1.04-.99-1.32-1.25-.31-.29-.79-.72-1.43-1.29-.81-.71-1.12-.89-1.22-.94-.31-.14-.76-.39-1.35-.73-.51-.29-.7-.27-.7-.28-.33.19-.85.25-1.58.17-1.43.3-2.46,1.34-3.16,3.18-.76,1.98-.91,4.87-.46,8.59.51,5.68,1.51,11.32,2.99,16.8.6,2.14,1.01,3.83,1.22,5,.22,1.22.28,2.74.19,4.52-.09,1.87-.61,3.47-1.55,4.77-1.46,2.22-3.83,3.65-7.04,4.21-1.6.32-3.55.48-5.82.48ZM311.86,163.78c-3.72.02-6.37.65-7.82,1.89-1.42,1.21-2.02,2.97-1.84,5.37.21,2.62.54,5.77.99,9.37.42,2.5.72,5.09.88,7.69.16,2.64.21,5.55.16,8.67-.05,3.15-.1,5.6-.14,7.35-.04,1.75-.15,4.63-.31,8.57-.16,3.96-.28,6.53-.33,7.69-.18,2.71.15,4.64.98,5.74,1.01,1.43,3.32,2.27,6.87,2.51,4.24.33,7.67.24,10.19-.27,2.86-.5,4.94-1.73,6.21-3.67.81-1.11,1.24-2.48,1.32-4.09.09-1.69.03-3.11-.17-4.22-.21-1.14-.61-2.78-1.2-4.89-1.5-5.55-2.52-11.27-3.03-17.01-.47-3.92-.29-7.02.54-9.19.88-2.3,2.3-3.65,4.23-4.01l.1-.02h.1c.72.1.94,0,.96-.02.65-.34,1.41.02,1.92.31.7.41,1.06.59,1.25.68.21.1.6.32,1.53,1.14.65.57,1.14,1.01,1.46,1.32.28.27.71.68,1.31,1.25l.35.33c.74.71,1.4,1.29,1.96,1.73,1.32,1.25,2.68,1.43,4.3.6,2.93-1.52,5.4-5,7.34-10.35,2.16-5.99,2.22-10.21.17-12.55h0c-2.64-3.09-7.24-4.7-13.66-4.79-2.84-.09-5.58.63-8.15,2.16-2.62,1.55-4.79,3.42-6.47,5.54l-1.27,1.62.21-3.67c.05-.81-.18-1.45-.69-1.98-.53-.54-1.28-.83-2.29-.88-.46-.05-1.44-.08-3.77.04-1.94.1-3.35.11-4.19.04Z"/>
    <path class="cls-5" d="M362.7,192.36c1.01,4.6,2.87,6.87,5.56,6.81,2.52-.05,4.52-1.87,6-5.44,1.11-2.5,1.55-5.32,1.33-8.47-.43-8-2.39-12.65-5.87-13.96-2.5-.93-4.63.25-6.38,3.55-2.4,4.46-2.61,10.29-.64,17.51M380.07,154.06c5.19,1.15,9.62,3.9,13.29,8.27,3.67,4.36,6.21,9.2,7.61,14.52,1.41,5.32,1.88,10.49,1.4,15.52-.47,5.02-1.81,9.4-4.02,13.15-2.21,3.74-5.01,6.49-8.4,8.24-3.39,1.75-7.23,2.66-11.49,2.74-4.27.08-8.72-1-13.36-3.22.4,3.78,1.09,9.24,2.07,16.4.98,7.15,1.59,11.76,1.83,13.83.23,2.7-.33,4.62-1.7,5.77-.64.53-1.72.97-3.25,1.3-6.03,1.18-12.1,1.05-18.18-.38-3.04-.76-4.91-2-5.61-3.71-.35-.81-.42-2.16-.21-4.05,3.32-26,3.45-51.91.4-77.73-.59-2.97-.11-4.96,1.43-5.98,1.54-1.01,4.33-1.67,8.38-1.97,1.44-.16,2.76-.23,3.98-.21,1.21.02,2.35.3,3.43.86,1.07.55,1.82,1.42,2.26,2.59,5.91-5.58,12.63-7.55,20.16-5.92"/>
    <path class="cls-3" d="M355.88,252.01c-3.39,0-6.78-.4-10.16-1.19-3.25-.81-5.29-2.19-6.06-4.1-.39-.92-.48-2.35-.26-4.36,3.3-25.83,3.43-51.93.4-77.58-.63-3.19-.06-5.43,1.72-6.59,1.65-1.08,4.49-1.76,8.69-2.08,1.46-.16,2.82-.23,4.03-.22,1.31.02,2.56.33,3.71.93.94.48,1.66,1.18,2.17,2.09,5.9-5.25,12.65-7.09,20.08-5.48h0c5.31,1.18,9.91,4.03,13.65,8.48,3.71,4.42,6.32,9.39,7.75,14.77,1.42,5.37,1.9,10.66,1.42,15.74-.48,5.1-1.86,9.61-4.11,13.42-2.26,3.83-5.17,6.68-8.66,8.48-3.46,1.79-7.42,2.73-11.78,2.81-4.04.07-8.26-.87-12.6-2.79.4,3.67,1.04,8.67,1.94,15.24.99,7.24,1.59,11.76,1.83,13.85.25,2.93-.4,5.05-1.92,6.34-.73.61-1.88,1.08-3.53,1.44-2.75.54-5.53.8-8.31.8ZM353.89,157.18c-1.07,0-2.27.07-3.57.21-3.94.3-6.66.93-8.09,1.87-1.29.85-1.68,2.63-1.15,5.31,3.06,25.8,2.92,52.01-.39,77.94-.24,2.18-.04,3.22.17,3.71.61,1.51,2.35,2.63,5.17,3.34,5.96,1.4,11.99,1.53,17.9.38,1.41-.31,2.41-.7,2.96-1.16,1.18-1,1.68-2.75,1.47-5.21-.24-2.02-.85-6.67-1.83-13.8-1-7.29-1.67-12.66-2.07-16.42l-.12-1.16,1.05.5c4.53,2.17,8.94,3.21,13.07,3.15,4.15-.07,7.92-.97,11.2-2.67,3.27-1.69,6-4.37,8.14-7.99,2.15-3.64,3.47-7.97,3.93-12.88.46-4.92,0-10.07-1.38-15.29-1.38-5.2-3.89-10-7.49-14.27-3.55-4.23-7.9-6.94-12.93-8.05-7.27-1.58-13.85.36-19.57,5.76l-.71.67-.34-.92c-.38-1.03-1.02-1.76-1.95-2.24-.97-.5-2.03-.77-3.13-.78-.11,0-.22,0-.33,0ZM368.17,199.82c-2.97,0-5.02-2.46-6.1-7.31-2-7.34-1.76-13.38.7-17.97,2.39-4.5,5.23-4.58,7.18-3.85,3.79,1.42,5.85,6.18,6.29,14.53.23,3.24-.24,6.19-1.38,8.77-1.58,3.8-3.8,5.77-6.58,5.83-.04,0-.07,0-.11,0ZM368.15,171.65c-1.59,0-2.98,1.16-4.23,3.51-2.31,4.29-2.5,10.02-.59,17.03v.03c.93,4.18,2.56,6.3,4.85,6.3h.08c2.25-.05,4.03-1.7,5.42-5.04,1.07-2.4,1.5-5.14,1.28-8.17-.41-7.69-2.25-12.19-5.45-13.4-.47-.17-.92-.26-1.35-.26Z"/>
    <path class="cls-5" d="M429.58,241.9h-26.32c-4.11,0-7.36-3.48-7.09-7.58l5.14-77.42c.02-.31.02-.63,0-.94l-5.14-77.42c-.27-4.1,2.98-7.58,7.09-7.58h26.32c4.14,0,7.41,3.53,7.09,7.66l-5.98,77.27c-.03.36-.03.73,0,1.1l5.98,77.27c.32,4.13-2.95,7.66-7.09,7.66"/>
    <path class="cls-3" d="M429.58,242.56h-26.32c-2.17,0-4.18-.87-5.66-2.46-1.48-1.58-2.22-3.65-2.08-5.81l5.14-77.42c.02-.29.02-.57,0-.85l-5.14-77.42c-.14-2.17.59-4.23,2.08-5.81,1.48-1.58,3.49-2.46,5.66-2.46h26.32c2.15,0,4.23.91,5.69,2.49s2.21,3.72,2.04,5.87l-5.98,77.27c-.03.33-.03.67,0,1l5.98,77.26c.17,2.15-.58,4.29-2.04,5.87s-3.54,2.49-5.69,2.49ZM403.26,71.61c-1.81,0-3.48.73-4.71,2.05s-1.85,3.04-1.73,4.84l5.14,77.42c.02.34.02.69,0,1.03l-5.14,77.42c-.12,1.8.49,3.52,1.73,4.84s2.91,2.04,4.71,2.04h26.32c1.82,0,3.5-.74,4.74-2.07,1.24-1.34,1.84-3.07,1.7-4.89l-5.98-77.27c-.03-.4-.03-.8,0-1.2l5.98-77.27c.14-1.81-.46-3.55-1.7-4.88-1.24-1.34-2.92-2.07-4.74-2.07h-26.32Z"/>
    <path class="cls-2" d="M396.2,88.66c-.43.17-.91.26-1.43.26-.3,0-.61-.04-.91-.09.04-.17.04-.39.04-.56.13-.04.3-.04.48-.04.65,0,1.26.17,1.82.43"/>
    <path class="cls-3" d="M394.77,89.24c-.33,0-.66-.05-.96-.09l-.36-.05.09-.35c.03-.13.03-.33.03-.48v-.23l.22-.07c.18-.06.38-.06.58-.06.64,0,1.28.15,1.96.46l.68.32-.7.28c-.47.19-.99.28-1.55.28ZM394.23,88.55c.23.03.46.05.68.04-.23-.04-.46-.04-.68-.04h0Z"/>
    <path class="cls-2" d="M396.2,88.66c-.43.17-.91.26-1.43.26-.3,0-.61-.04-.91-.09.04-.17.04-.39.04-.56.13-.04.3-.04.48-.04.65,0,1.26.17,1.82.43"/>
    <path class="cls-3" d="M394.77,89.24c-.33,0-.66-.05-.96-.09l-.36-.05.09-.35c.03-.13.03-.33.03-.48v-.23l.22-.07c.18-.06.38-.06.58-.06.64,0,1.28.15,1.96.46l.68.32-.7.28c-.47.19-.99.28-1.55.28ZM394.23,88.55c.23.03.46.05.68.04-.23-.04-.46-.04-.68-.04h0Z"/>
    <path class="cls-2" d="M446.81,80.6c0,2.34-1.95,4.25-4.29,4.25-1.82,0-3.42-1.17-3.99-2.82-.69.56-1.6.91-2.6.91-2.38,0-4.29-1.91-4.29-4.29,0-.95.3-1.82.82-2.51-.65-.35-1.17-.87-1.47-1.52-.74.69-1.73,1.08-2.82,1.08-1.78,0-3.25-1.08-3.9-2.6-.69.48-1.52.74-2.38.74-1.13,0-2.17-.43-2.9-1.17,0,2.34-1.95,4.29-4.29,4.29s-4.25-1.95-4.25-4.29c0-.69.17-1.39.52-1.95-.35-.22-.69-.52-.91-.82-.39,1-1.17,1.82-2.17,2.25.22.52.35,1.08.35,1.69,0,2.34-1.95,4.25-4.29,4.25s-4.25-1.91-4.25-4.25c0-.22,0-.43.04-.61-.39.26-.87.43-1.34.52.82.78,1.3,1.86,1.3,3.03,0,1.95-1.26,3.55-3.03,4.07,1.43.65,2.38,2.12,2.38,3.81,0,1.86-1.17,3.42-2.86,3.99-.56-.26-1.17-.43-1.82-.43-.17,0-.35,0-.48.04,0,.17,0,.39-.04.56.3.04.61.09.91.09.52,0,1-.09,1.43-.26,1.43.69,2.43,2.17,2.43,3.86,0,1.91-1.3,3.55-3.03,4.03.35.61.56,1.34.56,2.12,0,1.82-1.13,3.34-2.73,3.94.82.78,1.34,1.86,1.34,3.08,0,2.38-1.91,4.29-4.25,4.29h-.17c.95.74,1.56,1.91,1.56,3.25,0,2.34-1.91,4.25-4.29,4.25s-4.25-1.91-4.25-4.25c0-.91.26-1.73.78-2.43-2.21-.13-3.94-1.95-3.94-4.25,0-1.08.39-2.08,1.08-2.82-.35-.26-.65-.61-.87-1.04-.39.13-.82.22-1.3.22-2.38,0-4.29-1.91-4.29-4.25,0-1.56.82-2.9,2.08-3.64-.09-.22-.09-.43-.09-.65,0-2.12,1.56-3.86,3.55-4.16-.09-.26-.13-.48-.13-.74-.65.43-1.43.65-2.25.65-2.34,0-4.25-1.91-4.25-4.29,0-2.08,1.47-3.77,3.42-4.16-.61-.61-1.04-1.39-1.17-2.3-.17.04-.35.04-.52.04-2.34,0-4.25-1.91-4.25-4.25s1.91-4.25,4.25-4.25h.09c-.04-.26-.09-.52-.09-.82,0-.17,0-.39.04-.56h-.04c-2.34,0-4.25-1.91-4.25-4.25,0-.95.3-1.82.82-2.51-.52-.69-.82-1.56-.82-2.51,0-2.34,1.91-4.25,4.25-4.25.3,0,.56.04.82.09-.26-.52-.39-1.13-.39-1.73,0-2.34,1.95-4.25,4.29-4.25.56,0,1.08.09,1.56.3.56-1.69,2.17-2.95,4.07-2.95.82,0,1.65.26,2.3.69.69-1.39,2.12-2.34,3.77-2.34s3.08.95,3.77,2.34c.56-1.65,2.12-2.86,4.03-2.86,1.3,0,2.47.56,3.21,1.52.74-.95,1.95-1.52,3.25-1.52.87,0,1.69.26,2.38.74.74-.95,1.95-1.52,3.25-1.52s2.51.61,3.29,1.6c.69-.52,1.56-.82,2.51-.82,1.26,0,2.38.56,3.21,1.43.74-.87,1.86-1.43,3.12-1.43,1.86,0,3.51,1.26,4.03,2.95.69-.52,1.52-.78,2.43-.78,2.25,0,4.07,1.69,4.25,3.86.04.13.04.26.04.39s0,.3-.04.43c.09-.17.22-.35.39-.52.74-.95,1.95-1.52,3.25-1.52,2.34,0,4.25,1.91,4.25,4.25,0,1.34-.65,2.56-1.65,3.34,1,.74,1.65,1.95,1.65,3.29,0,.52-.09,1-.26,1.43.09-.04.17-.04.26-.04,2.34,0,4.29,1.91,4.29,4.25,0,2.04-1.47,3.81-3.42,4.2,1.13.78,1.86,2.08,1.86,3.55,0,.91-.26,1.73-.78,2.43,1.39.69,2.34,2.12,2.34,3.77"/>
    <path class="cls-3" d="M387.62,117.8c-2.52,0-4.57-2.05-4.57-4.57,0-.8.18-1.52.55-2.16-2.15-.38-3.71-2.23-3.71-4.51,0-1.04.33-2.01.95-2.78-.22-.2-.41-.43-.56-.69-.38.1-.76.16-1.14.16-2.54,0-4.62-2.05-4.62-4.57,0-1.55.75-2.94,2.03-3.79-.03-.18-.03-.35-.03-.5,0-1.71.97-3.24,2.41-4.01-.3.06-.6.09-.92.09-2.52,0-4.57-2.07-4.57-4.61,0-1.98,1.3-3.73,3.15-4.34-.41-.52-.7-1.12-.84-1.75-.09,0-.17,0-.26,0-2.52,0-4.57-2.05-4.57-4.57s1.9-4.41,4.28-4.56c-.02-.16-.04-.33-.04-.51,0-.08,0-.16,0-.25-2.39-.18-4.25-2.16-4.25-4.56,0-.91.26-1.78.75-2.51-.49-.74-.75-1.6-.75-2.51,0-2.52,2.05-4.57,4.57-4.57.11,0,.21,0,.31.01-.13-.42-.2-.87-.2-1.33,0-2.52,2.07-4.57,4.61-4.57.51,0,.96.07,1.37.21.71-1.72,2.39-2.85,4.26-2.85.76,0,1.52.2,2.17.56.82-1.37,2.28-2.21,3.89-2.21,1.5,0,2.88.73,3.72,1.95.77-1.5,2.34-2.47,4.08-2.47,1.25,0,2.4.48,3.21,1.34.8-.85,1.99-1.34,3.25-1.34.83,0,1.62.22,2.32.63.8-.89,2.02-1.41,3.31-1.41s2.5.54,3.35,1.49c.72-.47,1.56-.71,2.46-.71,1.17,0,2.29.45,3.2,1.29.82-.82,1.94-1.29,3.13-1.29,1.83,0,3.5,1.12,4.19,2.77.67-.4,1.43-.6,2.26-.6,2.39,0,4.33,1.74,4.56,4.07.78-.89,2.01-1.42,3.32-1.42,2.52,0,4.57,2.05,4.57,4.57,0,1.27-.53,2.46-1.47,3.33.92.83,1.47,2.03,1.47,3.3,0,.37-.04.73-.13,1.07,2.45.1,4.42,2.11,4.42,4.57,0,1.97-1.25,3.7-3.05,4.35.94.87,1.49,2.11,1.49,3.41,0,.86-.21,1.64-.64,2.31,1.36.82,2.2,2.28,2.2,3.88,0,2.52-2.07,4.57-4.61,4.57-1.8,0-3.41-1.04-4.13-2.63-.72.47-1.57.73-2.45.73-2.54,0-4.62-2.07-4.62-4.62,0-.87.24-1.7.68-2.41-.46-.3-.83-.67-1.1-1.11-.76.58-1.71.9-2.72.9-1.7,0-3.24-.95-4.04-2.46-1.5.86-3.51.74-4.87-.24-.33,2.2-2.29,3.96-4.57,3.96-2.52,0-4.57-2.07-4.57-4.62,0-.66.15-1.3.42-1.85-.14-.1-.28-.22-.4-.34-.42.78-1.06,1.42-1.84,1.83.17.5.26,1.01.26,1.53,0,2.52-2.07,4.57-4.61,4.57-1.7,0-3.18-.93-3.97-2.31.03.22.05.45.05.68,0,1.81-1.02,3.39-2.6,4.13,1.2.82,1.95,2.22,1.95,3.76,0,1.72-.96,3.27-2.46,4.03,1.25.85,2.02,2.28,2.02,3.81,0,1.89-1.17,3.57-2.89,4.22.28.6.43,1.26.43,1.93,0,1.74-.97,3.29-2.5,4.05.72.83,1.11,1.87,1.11,2.97,0,2.34-1.73,4.27-3.96,4.57.71.8,1.11,1.84,1.11,2.97,0,2.52-2.07,4.57-4.62,4.57ZM380.59,102.3l.13.25c.19.37.45.68.77.93l.29.22-.25.26c-.64.68-1,1.6-1,2.59,0,2.11,1.56,3.8,3.64,3.92l.6.04-.36.48c-.47.63-.71,1.38-.71,2.23,0,2.16,1.76,3.92,3.92,3.92s3.96-1.76,3.96-3.92c0-1.2-.52-2.29-1.43-2.99l-.75-.58h1.12c2.16,0,3.92-1.78,3.92-3.96,0-1.07-.44-2.08-1.24-2.84l-.38-.36.48-.18c1.53-.58,2.52-2.01,2.52-3.64,0-.69-.18-1.37-.52-1.96l-.21-.36.4-.11c1.62-.45,2.79-2.01,2.79-3.72,0-1.46-.83-2.82-2.12-3.5-.72.25-1.63.25-2.37.14l-.36-.05.09-.35c.03-.13.03-.33.03-.48v-.23l.22-.07c.18-.06.38-.06.58-.06.6,0,1.2.13,1.83.4h0s0,0,0,0c1.53-.57,2.51-1.98,2.51-3.63,0-1.53-.86-2.91-2.19-3.52l-.8-.36.84-.25c1.67-.49,2.8-2,2.8-3.76,0-1.07-.43-2.06-1.2-2.8l-.47-.44.63-.11c.46-.08.89-.25,1.22-.47l.7-.46-.2.81c-.03.14-.03.34-.03.53,0,2.16,1.76,3.92,3.92,3.92s3.96-1.76,3.96-3.92c0-.53-.11-1.05-.32-1.57l-.12-.29.29-.13c.9-.39,1.63-1.15,1.99-2.07l.22-.56.35.49c.18.26.49.53.82.74l.27.17-.17.28c-.3.49-.47,1.13-.47,1.78,0,2.19,1.76,3.96,3.92,3.96s3.96-1.82,3.96-3.96v-.79l.55.56c1.21,1.22,3.4,1.41,4.87.4l.33-.23.16.36c.62,1.46,2.04,2.4,3.6,2.4.99,0,1.91-.35,2.59-.99l.33-.31.19.41c.27.57.73,1.04,1.33,1.37l.33.18-.23.3c-.5.66-.76,1.46-.76,2.32,0,2.19,1.78,3.96,3.96,3.96.88,0,1.73-.3,2.39-.84l.36-.29.15.44c.52,1.53,2.04,2.6,3.68,2.6,2.19,0,3.96-1.76,3.96-3.92,0-1.48-.83-2.81-2.16-3.48l-.35-.17.23-.31c.47-.63.71-1.38.71-2.23,0-1.31-.64-2.54-1.72-3.29l-.63-.44.75-.15c1.8-.36,3.16-2.03,3.16-3.88,0-2.16-1.78-3.92-3.96-3.92-.04,0-.1,0-.11,0l-.77.39.32-.8c.16-.4.24-.84.24-1.31,0-1.2-.57-2.33-1.52-3.03l-.34-.25.34-.26c.97-.76,1.52-1.88,1.52-3.08,0-2.16-1.76-3.92-3.92-3.92-1.2,0-2.32.52-2.99,1.39-.17.18-.28.32-.36.47l-.6-.25c.03-.08.03-.23.03-.33,0-.11,0-.21-.03-.29-.18-2.1-1.86-3.63-3.94-3.63-.85,0-1.6.24-2.23.72l-.37.28-.14-.44c-.49-1.6-2.02-2.72-3.72-2.72-1.12,0-2.16.48-2.87,1.31l-.23.28-.25-.26c-.81-.86-1.87-1.33-2.97-1.33-.86,0-1.66.26-2.32.76l-.25.19-.2-.25c-.75-.95-1.82-1.48-3.04-1.48s-2.32.52-2.99,1.39l-.19.24-.25-.17c-.65-.44-1.41-.68-2.2-.68-1.2,0-2.32.52-2.99,1.39l-.26.33-.26-.33c-.68-.88-1.76-1.39-2.95-1.39-1.69,0-3.18,1.06-3.72,2.64l-.25.74-.35-.7c-.67-1.33-2-2.16-3.48-2.16s-2.81.83-3.48,2.16l-.17.33-.31-.2c-.61-.41-1.38-.64-2.12-.64-1.71,0-3.22,1.09-3.76,2.72l-.11.34-.33-.15c-.41-.18-.87-.27-1.43-.27-2.19,0-3.96,1.76-3.96,3.92,0,.57.12,1.12.36,1.59l.29.57-.63-.1c-.27-.04-.5-.08-.77-.08-2.16,0-3.92,1.76-3.92,3.92,0,.85.26,1.66.76,2.32l.15.19-.15.19c-.5.66-.76,1.46-.76,2.32,0,2.16,1.76,3.92,3.92,3.92h.42l-.06.4c-.03.13-.03.33-.03.48,0,.27.04.51.08.75l.06.38-.47.02c-2.16,0-3.92,1.76-3.92,3.92s1.76,3.92,3.92,3.92c.16,0,.31,0,.44-.03l.35-.09.05.36c.11.79.49,1.52,1.08,2.11l.43.43-.6.12c-1.86.37-3.16,1.95-3.16,3.84,0,2.19,1.76,3.96,3.92,3.96.77,0,1.49-.21,2.07-.59l.51-.34v.61c0,.21.03.39.11.63l.12.37-.38.06c-1.87.28-3.28,1.93-3.28,3.84,0,.2,0,.37.06.53l.1.26-.24.14c-1.2.71-1.92,1.96-1.92,3.36,0,2.16,1.78,3.92,3.96,3.92.4,0,.79-.07,1.2-.2l.27-.09ZM394.23,88.55c.23.03.46.05.68.04-.23-.04-.46-.04-.68-.04h0ZM399.02,73.93c.15.19.29.39.41.6-.04-.23-.05-.46-.05-.69v-.04c-.12.05-.24.1-.36.14Z"/>
    <path class="cls-2" d="M434.63,52.17c.04-.13.04-.3.04-.43s0-.26-.04-.39c.13.09.26.17.39.3-.17.17-.3.35-.39.52"/>
    <path class="cls-3" d="M434.92,52.32l-.6-.25c.03-.08.03-.23.03-.33,0-.11,0-.21-.03-.29l-.3-.9.79.53c.15.1.3.2.44.34l.23.23-.23.23c-.15.15-.26.29-.33.44Z"/>
    <path class="cls-3" d="M195.89,258.33h-.21c0-.13.1-.21.21-.21v.21Z"/>
    <path class="cls-5" d="M453.93,185.27c.23,1.44.88,2.37,1.95,2.78,1.07.42,2.25.18,3.55-.71,3.57-2.44,4.95-5.4,4.17-8.87-.7-2.69-2.17-4.33-4.42-4.92-2.71-.72-4.43.94-5.17,4.97-.3,1.94-.3,4.13,0,6.56l-.09.18ZM482.19,192.76c3.55-.3,6.12.4,7.72,2.09,1.6,1.69,2.51,4.23,2.75,7.6.28,2.13.34,4.12.16,5.97-.18,1.85-.66,3.58-1.43,5.18-.77,1.61-1.81,3.27-3.11,4.97-3.91,4.81-9.24,8.37-16.01,10.68-7.44,2.97-14.25,3.26-20.42.88-6.18-2.38-10.85-6.54-14.02-12.48-3.18-5.94-5.31-12.44-6.41-19.51-1.1-7.07-.49-14.11,1.83-21.12,2.32-7.02,6.05-12.5,11.2-16.45,2.98-1.82,6.05-3.34,9.21-4.57,3.15-1.22,6.53-1.56,10.14-1.02,3.61.54,6.71,2.11,9.3,4.7,4.03,3.99,5.92,9.22,5.67,15.66-.25,6.45-2.15,12.01-5.7,16.68-1.47,2.07-3.25,3.7-5.35,4.89-2.1,1.19-3.9,1.89-5.4,2.09-1.5.2-2.85.22-4.03.05.26,3.98,2.42,7.6,6.48,10.86,3.23,2.67,5.48,3.25,6.76,1.76.78-.9.92-2.58.42-5.03-.47-2.37-.6-4.4-.37-6.12.23-1.71.63-3.03,1.2-3.96.57-.92,1.46-1.66,2.68-2.22,1.22-.55,2.27-.92,3.17-1.11.9-.18,2.09-.34,3.56-.48"/>
    <path class="cls-3" d="M460.46,232.36c-3.08,0-6.04-.54-8.85-1.63-6.29-2.43-11.13-6.73-14.36-12.78-3.19-5.97-5.37-12.6-6.48-19.71-1.11-7.14-.49-14.35,1.86-21.43,2.35-7.11,6.19-12.75,11.42-16.76,3.06-1.87,6.19-3.43,9.37-4.66,3.25-1.26,6.77-1.62,10.47-1.06,3.73.56,6.98,2.2,9.66,4.89,4.14,4.11,6.11,9.54,5.86,16.15-.25,6.55-2.21,12.29-5.83,17.05-1.5,2.13-3.38,3.84-5.55,5.06-2.17,1.23-4.06,1.96-5.63,2.16-1.21.17-2.35.21-3.39.13.46,3.47,2.53,6.71,6.16,9.62,2.89,2.39,4.86,3.01,5.85,1.84.63-.73.73-2.28.27-4.48-.49-2.43-.61-4.56-.38-6.34.24-1.79.67-3.21,1.29-4.21.64-1.03,1.64-1.86,2.97-2.47,1.25-.57,2.37-.96,3.31-1.15.91-.18,2.1-.34,3.62-.49h0c3.74-.32,6.51.45,8.25,2.29,1.69,1.8,2.68,4.49,2.92,8,.29,2.13.34,4.19.16,6.07-.19,1.92-.69,3.74-1.49,5.4-.79,1.64-1.85,3.35-3.18,5.08-3.98,4.9-9.47,8.56-16.32,10.9-4.17,1.66-8.19,2.5-12.01,2.5ZM460.56,155.39c-2.33,0-4.57.41-6.68,1.23-3.11,1.21-6.17,2.73-9.11,4.52-4.96,3.81-8.65,9.24-10.92,16.09-2.28,6.88-2.89,13.89-1.81,20.82,1.09,6.97,3.22,13.46,6.34,19.3,3.09,5.77,7.69,9.87,13.68,12.18,5.99,2.31,12.7,2.02,19.94-.88,6.65-2.27,11.94-5.8,15.75-10.49,1.26-1.65,2.28-3.29,3.03-4.84.74-1.53,1.2-3.2,1.37-4.96.17-1.79.12-3.75-.16-5.82-.23-3.24-1.09-5.66-2.58-7.24-1.45-1.53-3.87-2.17-7.19-1.89-1.48.14-2.62.3-3.49.47-.85.17-1.87.53-3.03,1.06-1.09.5-1.9,1.16-2.4,1.97-.52.84-.9,2.09-1.11,3.7-.22,1.63-.1,3.62.36,5.91.55,2.69.37,4.52-.56,5.59-1.54,1.81-4.12,1.24-7.66-1.68-4.19-3.37-6.45-7.18-6.71-11.32l-.05-.8.79.11c1.13.16,2.42.15,3.84-.05,1.41-.19,3.15-.86,5.17-2.01,2.01-1.13,3.74-2.71,5.14-4.7,3.46-4.57,5.34-10.06,5.58-16.33.24-6.23-1.61-11.33-5.48-15.17-2.48-2.48-5.49-4.01-8.94-4.52-1.06-.16-2.11-.24-3.13-.24ZM456.94,188.9c-.44,0-.88-.08-1.29-.25-1.29-.5-2.09-1.61-2.36-3.29l-.03-.2.09-.2c-.28-2.41-.27-4.62.02-6.55.48-2.63,1.35-4.3,2.65-5.13.93-.59,2.05-.72,3.33-.38,2.48.65,4.13,2.46,4.88,5.38.85,3.76-.65,6.98-4.44,9.57-.99.68-1.95,1.03-2.86,1.03ZM454.6,185.36c.22,1.1.71,1.78,1.51,2.09.86.34,1.83.13,2.95-.64,3.35-2.3,4.63-4.98,3.91-8.2-.63-2.45-1.93-3.9-3.95-4.43-.93-.25-1.68-.17-2.3.22-.97.62-1.67,2.04-2.07,4.24-.28,1.85-.28,4,0,6.37l.02.18-.08.17Z"/>
  </g>
</svg>